<?xml version="1.0" standalone="no"?><!DOCTYPE svg PUBLIC "-//W3C//DTD SVG 1.1//EN" "http://www.w3.org/Graphics/SVG/1.1/DTD/svg11.dtd"><svg t="1579512090405" class="icon" viewBox="0 0 1024 1024" version="1.1" xmlns="http://www.w3.org/2000/svg" p-id="2109" xmlns:xlink="http://www.w3.org/1999/xlink" width="48" height="48"><defs><style type="text/css"></style></defs><path d="M884.153 16.23H140.488C66.036 16.23 5.387 75.414 5.387 148.067v725.668c0 72.642 60.809 131.838 135.101 131.838h743.666c74.464 0 135.11-59.36 135.11-131.838V148.067c0-72.654-60.825-131.837-135.111-131.837zM728.308 622.132c-7.283 6.947-16.816 10.428-26.365 10.428-9.54 0-19.079-3.482-26.367-10.428L550.667 502.91v247.582c0 19.654-16.687 35.583-37.277 35.583-20.597 0-37.289-15.927-37.289-35.583V501.906L350.129 622.131c-7.281 6.947-16.823 10.428-26.365 10.428s-19.083-3.482-26.378-10.428c-14.55-13.906-14.55-36.427 0-50.324l188.567-179.97c7.414-7.071 17.17-10.517 26.898-10.397 0.18 0 0.352-0.027 0.527-0.027h0.017c1.219 0.004 2.439 0.065 3.666 0.187 0.559 0.054 1.097 0.148 1.645 0.223 0.658 0.085 1.307 0.171 1.962 0.285 0.629 0.121 1.235 0.289 1.857 0.432 0.559 0.138 1.124 0.259 1.683 0.413 0.599 0.18 1.187 0.382 1.777 0.599 0.559 0.19 1.117 0.364 1.662 0.58 0.563 0.22 1.086 0.474 1.628 0.717 0.559 0.253 1.124 0.492 1.675 0.772 0.527 0.268 1.018 0.566 1.529 0.859 0.529 0.302 1.082 0.595 1.602 0.931 0.557 0.361 1.092 0.753 1.623 1.137 0.432 0.311 0.886 0.596 1.303 0.935 4.496 3.536 8.15 7.931 10.754 12.955l180.541 169.371c14.557 13.894 14.557 36.416 0.001 50.323z m11.991-315.241H284.35c-20.593 0-37.281-15.94-37.281-35.589s16.689-35.587 37.281-35.587h455.949c20.593 0 37.284 15.936 37.284 35.587 0 19.649-16.691 35.589-37.284 35.589z" p-id="2110"></path></svg>