<?xml version="1.0" standalone="no"?><!DOCTYPE svg PUBLIC "-//W3C//DTD SVG 1.1//EN" "http://www.w3.org/Graphics/SVG/1.1/DTD/svg11.dtd"><svg t="1579421174809" class="icon" viewBox="0 0 1024 1024" version="1.1" xmlns="http://www.w3.org/2000/svg" p-id="1605" xmlns:xlink="http://www.w3.org/1999/xlink" width="48" height="48"><defs><style type="text/css"></style></defs><path d="M668.856796 349.273068c10.724286-7.789218 13.094918-22.803219 5.3057-33.527505-7.789218-10.724286-22.803219-13.094918-33.527505-5.3057l-128.578547 93.696395-128.578547-93.696395c-10.724286-7.789218-25.738287-5.418587-33.527506 5.3057-7.789218 10.724286-5.418587 25.738287 5.3057 33.527505l132.981149 96.970125v13.885128h-88.052034c-13.207805 0-24.044979 10.724286-24.044979 24.044979s10.724286 24.044979 24.044979 24.044978h88.052034v40.300739h-88.052034c-13.207805 0-24.044979 10.724286-24.044979 24.044978s10.724286 24.044979 24.044979 24.044979h88.052034V694.256422c0 13.207805 10.724286 24.044979 24.044978 24.044978s24.044979-10.724286 24.044979-24.044978v-97.647448h89.632455c13.207805 0 24.044979-10.724286 24.044978-24.044979s-10.724286-24.044979-24.044978-24.044978h-89.632455v-40.300739h89.632455c13.207805 0 24.044979-10.724286 24.044978-24.044978s-10.724286-24.044979-24.044978-24.044979h-89.632455v-14.110903l132.529599-96.74435z" p-id="1606"></path><path d="M955.477456 831.640172c0.225774-0.338662 0.451549-0.790211 0.677323-1.128872 0.225774-0.338662 0.338662-0.677323 0.451549-1.015985 0.225774-0.338662 0.338662-0.790211 0.451549-1.128872 0.112887-0.338662 0.225774-0.677323 0.451549-1.128873 0.112887-0.338662 0.225774-0.790211 0.338661-1.128872 0.112887-0.338662 0.225774-0.790211 0.338662-1.128872 0.112887-0.338662 0.112887-0.677323 0.225774-1.128872s0.112887-0.903098 0.225775-1.24176c0-0.338662 0.112887-0.677323 0.112887-1.015985 0-0.451549 0-0.903098 0.112887-1.354647V496.478007c0-19.303715-1.354647-38.60743-4.06394-57.685371-14.22379-99.227869-65.02304-190.66652-143.140998-257.382869-78.682394-67.280785-179.490685-104.307794-283.572705-104.307794h-31.947084c-57.798258 0-114.128982 11.062948-167.185977 32.963069-51.250799 21.109911-97.308786 51.363686-136.932202 89.85823C152.397751 238.530702 121.12799 283.34693 99.340756 333.243082c-22.690332 51.815235-34.091941 106.678426-34.091941 163.122038v31.043986c0 49.557491 8.918091 98.211884 26.528497 144.495645 16.933083 44.70334 41.542498 86.020064 73.038034 122.821299 63.216845 73.941131 150.930217 125.079043 246.884356 143.818322 27.65737 5.418587 55.992063 8.12788 84.326756 8.12788h247.335906c13.207805 0 24.044979-10.724286 24.044978-24.044978s-10.724286-24.044979-24.044978-24.044979H496.026458c-25.286738 0-50.573476-2.483519-75.182891-7.224782-85.455628-16.707309-163.460699-62.087973-219.565648-127.901224-27.883144-32.624407-49.670378-69.199868-64.684379-108.710395-15.578437-40.865175-23.367655-83.762319-23.367655-127.449675v-31.043987c0-49.783265 10.15985-98.211884 30.140888-143.931209 19.303715-44.138904 46.961085-83.875207 82.181899-118.080035 35.220814-34.204829 76.198876-61.184875 121.805313-79.924154 47.186859-19.52949 97.308786-29.350678 148.78536-29.350678h31.947084c190.102084 0 353.111234 137.722412 379.30107 320.486826 2.370632 16.820196 3.612391 33.866167 3.612391 50.912138v273.97729l-84.326756-65.361702c-10.498512-8.12788-25.512512-6.208797-33.640392 4.289714-8.12788 10.498512-6.208797 25.512512 4.289714 33.640393l123.047073 95.389703c0.225774 0.225774 0.451549 0.338662 0.790211 0.564436 0.225774 0.225774 0.451549 0.338662 0.79021 0.564436 0.451549 0.225774 0.903098 0.564436 1.24176 0.790211 0.225774 0.112887 0.338662 0.225774 0.564436 0.338662 0.677323 0.338662 1.241759 0.677323 1.919083 0.903097 0.112887 0.112887 0.338662 0.112887 0.451549 0.225775 0.564436 0.225774 1.015985 0.451549 1.580421 0.564436 0.225774 0.112887 0.451549 0.112887 0.677323 0.225774 0.451549 0.112887 1.015985 0.225774 1.467534 0.338662 0.225774 0 0.451549 0.112887 0.790211 0.112887 0.564436 0.112887 1.015985 0.225774 1.580421 0.225775 0.225774 0 0.451549 0.112887 0.677323 0.112887 0.790211 0.112887 1.467534 0.112887 2.257744 0.112887s1.467534 0 2.257745-0.112887h0.338662l2.03197-0.338662c0.225774 0 0.338662-0.112887 0.564436-0.112887 0.564436-0.112887 1.241759-0.338662 1.806195-0.451549 0.225774 0 0.338662-0.112887 0.564436-0.112887 0.564436-0.225774 1.241759-0.451549 1.806196-0.677323 0.112887 0 0.225774-0.112887 0.338662-0.112888 0.564436-0.225774 1.241759-0.564436 1.806195-0.903097 0 0 0.112887 0 0.112887-0.112888 0.677323-0.338662 1.241759-0.677323 1.806196-1.128872 0.112887 0 0.112887-0.112887 0.225774-0.112887 0.564436-0.451549 1.128872-0.790211 1.693309-1.24176l0.112887-0.112887c0.564436-0.451549 1.128872-0.903098 1.580421-1.467534l0.112887-0.112887c0.451549-0.451549 0.903098-1.015985 1.354647-1.467534l0.338662-0.338661 0.338661-0.338662c0.112887-0.225774 0.225774-0.338662 0.338662-0.564436 0.225774-0.338662 0.564436-0.790211 0.790211-1.128872-0.338662-0.225774-0.112887-0.564436 0-0.790211z" p-id="1607"></path></svg>