<?xml version="1.0" standalone="no"?><!DOCTYPE svg PUBLIC "-//W3C//DTD SVG 1.1//EN" "http://www.w3.org/Graphics/SVG/1.1/DTD/svg11.dtd"><svg t="1578530848107" class="icon" viewBox="0 0 1024 1024" version="1.1" xmlns="http://www.w3.org/2000/svg" p-id="1433" xmlns:xlink="http://www.w3.org/1999/xlink" width="48" height="48"><defs><style type="text/css"></style></defs><path d="M640 832a21.333333 21.333333 0 0 1-15.146667-6.186667l-298.666666-298.666666a21.333333 21.333333 0 0 1 30.293333-30.293334l298.666667 298.666667a21.333333 21.333333 0 0 1 0 30.293333A21.333333 21.333333 0 0 1 640 832z" fill="#333333" p-id="1434"></path><path d="M341.333333 533.333333a21.333333 21.333333 0 0 1-15.146666-6.186666 21.333333 21.333333 0 0 1 0-30.293334l298.666666-298.666666a21.333333 21.333333 0 0 1 30.293334 30.293333l-298.666667 298.666667A21.333333 21.333333 0 0 1 341.333333 533.333333z" fill="#333333" p-id="1435"></path></svg>