<?xml version="1.0" standalone="no"?><!DOCTYPE svg PUBLIC "-//W3C//DTD SVG 1.1//EN" "http://www.w3.org/Graphics/SVG/1.1/DTD/svg11.dtd"><svg t="1579487509308" class="icon" viewBox="0 0 1109 1024" version="1.1" xmlns="http://www.w3.org/2000/svg" p-id="2102" xmlns:xlink="http://www.w3.org/1999/xlink" width="51.984375" height="48"><defs><style type="text/css"></style></defs><path d="M1045.333333 406.528c4.778667 27.306667 7.338667 55.466667 7.338667 84.138667 0 271.189333-223.829333 490.666667-499.456 490.666666C277.589333 981.333333 53.76 761.856 53.76 490.666667S277.504 0 553.216 0c124.501333 0 238.421333 44.8 325.973333 118.869333l-69.632 53.418667A417.962667 417.962667 0 0 0 553.216 85.333333C324.266667 85.333333 139.093333 267.008 139.093333 490.666667S324.266667 896 553.216 896c228.864 0 414.122667-181.674667 414.122667-405.333333a402.773333 402.773333 0 0 0-0.768-23.637334l78.762666-60.501333zM567.978667 593.92l438.186666-452.010667 55.808 50.688-498.858666 505.770667-17.322667-21.333333-1.706667 2.218666-223.829333-205.056 55.466667-51.370666L567.978667 593.92z" fill="#d81e06" p-id="2103"></path></svg>