<?xml version="1.0" standalone="no"?><!DOCTYPE svg PUBLIC "-//W3C//DTD SVG 1.1//EN" "http://www.w3.org/Graphics/SVG/1.1/DTD/svg11.dtd"><svg t="1579487535958" class="icon" viewBox="0 0 1024 1024" version="1.1" xmlns="http://www.w3.org/2000/svg" p-id="2894" xmlns:xlink="http://www.w3.org/1999/xlink" width="48" height="48"><defs><style type="text/css"></style></defs><path d="M335.872 657.408" p-id="2895"></path><path d="M802.816 209.92c39.936 39.936 69.632 84.992 89.088 135.168 19.456 50.176 29.696 102.4 29.696 154.624 0 52.224-10.24 103.424-29.696 154.624-19.456 50.176-50.176 95.232-89.088 135.168C761.856 829.44 716.8 860.16 666.624 879.616c-50.176 19.456-102.4 29.696-154.624 29.696-52.224 0-103.424-10.24-154.624-29.696C307.2 860.16 262.144 829.44 222.208 790.528c-39.936-39.936-70.656-86.016-90.112-136.192C112.64 603.136 102.4 551.936 102.4 499.712c0-52.224 10.24-103.424 29.696-154.624 19.456-50.176 50.176-96.256 90.112-136.192 39.936-39.936 84.992-69.632 135.168-89.088 50.176-19.456 102.4-29.696 154.624-29.696 52.224 0 103.424 10.24 154.624 29.696C716.8 140.288 761.856 169.984 802.816 209.92L802.816 209.92 802.816 209.92zM281.6 730.112c31.744 31.744 67.584 55.296 107.52 71.68 39.936 16.384 80.896 23.552 122.88 23.552 41.984 0 82.944-8.192 122.88-23.552 39.936-16.384 75.776-39.936 107.52-71.68 31.744-31.744 55.296-67.584 71.68-107.52 16.384-39.936 23.552-80.896 23.552-122.88 0-41.984-8.192-82.944-23.552-122.88-16.384-39.936-39.936-75.776-71.68-107.52-31.744-31.744-68.608-56.32-108.544-71.68-39.936-16.384-80.896-23.552-122.88-23.552-41.984 0-82.944 8.192-122.88 23.552-39.936 16.384-75.776 39.936-107.52 71.68-31.744 31.744-55.296 67.584-71.68 107.52-16.384 39.936-23.552 80.896-23.552 122.88 0 41.984 8.192 82.944 23.552 122.88C225.28 662.528 249.856 698.368 281.6 730.112L281.6 730.112 281.6 730.112zM729.088 225.28l63.488 65.536L307.2 775.168l-64.512-64.512L729.088 225.28zM729.088 225.28" p-id="2896"></path></svg>