<?xml version="1.0" standalone="no"?><!DOCTYPE svg PUBLIC "-//W3C//DTD SVG 1.1//EN" "http://www.w3.org/Graphics/SVG/1.1/DTD/svg11.dtd"><svg t="1580126513197" class="icon" viewBox="0 0 1024 1024" version="1.1" xmlns="http://www.w3.org/2000/svg" p-id="9872" xmlns:xlink="http://www.w3.org/1999/xlink" width="32" height="32"><defs><style type="text/css"></style></defs><path d="M896 1024H128C57.4 1024 0 966.6 0 896v-1.1l0.1-1.1 59.9-737C60.7 86.8 117.8 30 188 30h648c70.2 0 127.3 56.8 128 126.8l60 738.1v1.1c0 70.6-57.4 128-128 128zM56 897c0.6 39.2 32.6 71 72 71h768c39.4 0 71.4-31.7 72-71l-60-737.9V158c0-39.7-32.3-72-72-72H188c-39.7 0-72 32.3-72 72v1.1l-0.1 1.1L56 897z" p-id="9873" fill="#d81e06"></path><path d="M738 217c-15.4 0-28 12.6-28 28 0 89.9-22.3 174-62.9 236.9C609 541 559.6 573.5 508 573.5S407 541 368.9 481.9C328.3 419 306 334.9 306 245c0-15.4-12.6-28-28-28s-28 12.6-28 28c0 100.5 25.5 195.5 71.8 267.3 23.3 36 50.6 64.5 81.3 84.6 33 21.6 68.3 32.6 104.9 32.6 36.6 0 71.9-11 104.9-32.6 30.7-20.1 58-48.6 81.3-84.6C740.5 440.5 766 345.5 766 245c0-15.4-12.6-28-28-28z" p-id="9874" fill="#d81e06"></path></svg>