<?xml version="1.0" standalone="no"?><!DOCTYPE svg PUBLIC "-//W3C//DTD SVG 1.1//EN" "http://www.w3.org/Graphics/SVG/1.1/DTD/svg11.dtd"><svg t="1580125990051" class="icon" viewBox="0 0 1024 1024" version="1.1" xmlns="http://www.w3.org/2000/svg" p-id="7269" width="32" height="32" xmlns:xlink="http://www.w3.org/1999/xlink"><defs><style type="text/css"></style></defs><path d="M851.382857 497.371429c-11.702857 0-21.942857 10.24-21.942857 21.942857v321.828571c0 33.645714-27.794286 61.44-61.44 61.44h-84.845714V612.937143c0-11.702857-10.24-21.942857-21.942857-21.942857H362.788571c-11.702857 0-21.942857 10.24-21.942857 21.942857v288.182857h-84.845714c-33.645714 0-61.44-27.794286-61.44-61.44v-321.828571c0-11.702857-10.24-21.942857-21.942857-21.942858s-21.942857 10.24-21.942857 21.942858v321.828571c0 58.514286 46.811429 105.325714 105.325714 105.325714h512c58.514286 0 105.325714-46.811429 105.325714-105.325714v-321.828571c0-10.24-10.24-20.48-21.942857-20.48zM384.731429 902.582857V634.88h254.537142v266.24H384.731429zM959.634286 292.571429L885.028571 102.4c-4.388571-8.777143-11.702857-14.628571-20.48-14.628571H159.451429c-8.777143 0-16.091429 5.851429-20.48 14.628571L64.365714 292.571429c-1.462857 2.925714-1.462857 5.851429-1.462857 8.777142 0 71.68 58.514286 128.731429 128.731429 128.731429 43.885714 0 83.382857-21.942857 106.788571-57.051429 23.405714 33.645714 62.902857 57.051429 106.788572 57.051429s83.382857-21.942857 106.788571-57.051429c23.405714 33.645714 62.902857 57.051429 106.788571 57.051429s83.382857-21.942857 106.788572-57.051429c23.405714 33.645714 62.902857 57.051429 106.788571 57.051429 71.68 0 128.731429-58.514286 128.731429-128.731429 0-2.925714 0-5.851429-1.462857-8.777142z m-127.268572 93.622857c-46.811429 0-84.845714-38.034286-84.845714-84.845715 0-11.702857-10.24-21.942857-21.942857-21.942857s-21.942857 10.24-21.942857 21.942857c0 46.811429-38.034286 84.845714-84.845715 84.845715s-84.845714-38.034286-84.845714-84.845715c0-11.702857-10.24-21.942857-21.942857-21.942857s-21.942857 10.24-21.942857 21.942857c0 46.811429-38.034286 84.845714-84.845714 84.845715s-84.845714-38.034286-84.845715-84.845715c0-11.702857-10.24-21.942857-21.942857-21.942857s-21.942857 10.24-21.942857 21.942857c0 46.811429-38.034286 84.845714-84.845714 84.845715-45.348571 0-83.382857-36.571429-84.845715-80.457143L175.542857 131.657143h674.377143l68.754286 172.617143c-2.925714 45.348571-40.96 81.92-86.308572 81.92z" p-id="7270" fill="#d81e06"></path></svg>