<?xml version="1.0" standalone="no"?><!DOCTYPE svg PUBLIC "-//W3C//DTD SVG 1.1//EN" "http://www.w3.org/Graphics/SVG/1.1/DTD/svg11.dtd"><svg t="1580123355827" class="icon" viewBox="0 0 1024 1024" version="1.1" xmlns="http://www.w3.org/2000/svg" p-id="2124" width="64" height="64" xmlns:xlink="http://www.w3.org/1999/xlink"><defs><style type="text/css"></style></defs><path d="M166.337561 520.291902h180.398829c-2.797268 75.513756-4.195902 474.037073-4.195902 474.037074H34.766049V847.522341h156.746927S187.317073 724.455024 187.317073 671.306927H6.930732V281.162927h184.569756v-100.676683H2.747317V33.654634h339.793171v394.339903H166.337561v92.284878zM975.996878 130.122927L694.921366 369.26439l-96.480781-117.460292v134.243902h385.948098v155.223415H827.079805l192.312195 343.989073-131.496585 96.493268L652.987317 541.258927h-54.534244v243.786927l54.534244-23.776781 61.44 124.003903S477.159024 1001.347122 451.98361 1018.130732L384.499512 885.260488l47.990634-20.929561-1.848195-323.084488H363.52v-155.223415h67.121951V8.491707h167.811122v239.128976L858.536585 21.079415l117.460293 109.056z" p-id="2125" fill="#d81e06"></path></svg>