<?xml version="1.0" standalone="no"?><!DOCTYPE svg PUBLIC "-//W3C//DTD SVG 1.1//EN" "http://www.w3.org/Graphics/SVG/1.1/DTD/svg11.dtd"><svg t="1580126075499" class="icon" viewBox="0 0 1024 1024" version="1.1" xmlns="http://www.w3.org/2000/svg" p-id="9077" xmlns:xlink="http://www.w3.org/1999/xlink" width="32" height="32"><defs><style type="text/css"></style></defs><path d="M273.066667 614.4v273.066667h72.533333v42.666666H157.866667v-42.666666h68.266666V196.266667c0-17.066667 8.533333-38.4 25.6-51.2 42.666667-34.133333 98.133333-51.2 174.933334-51.2 55.466667 0 85.333333 8.533333 140.8 29.866666 51.2 21.333333 76.8 29.866667 128 29.866667 25.6 0 51.2-4.266667 72.533333-12.8 17.066667-8.533333 42.666667-12.8 68.266667-21.333333l25.6-8.533334v426.666667l-4.266667 4.266667c-51.2 51.2-106.666667 76.8-162.133333 76.8-55.466667 0-89.6-8.533333-145.066667-29.866667-4.266667 0-4.266667 0-8.533333-4.266667-46.933333-17.066667-72.533333-25.6-110.933334-25.6-42.666667 0-85.333333 8.533333-119.466666 25.6-17.066667 12.8-29.866667 21.333333-38.4 29.866667z" p-id="9078" fill="#d81e06"></path></svg>